<svg id="Layer_1" data-name="Layer 1" xmlns="http://www.w3.org/2000/svg" viewBox="0 0 1080 1080"><defs><style>.cls-1{fill:#43b657;}</style></defs><path class="cls-1" d="M451.27,866.4c-7.35.23-9-5-12.28-8.12q-153-144-305.81-288.12c-7.21-6.79-11.68-10.91-1.09-19.64q64.24-53,126.52-108c11.59-10.26,17.94-9.09,27.93,1.05C336.91,494.65,388.19,545,438.45,596.16c10.75,11,17.42,12.7,29.39.91C574.78,491.79,682.57,387.22,789.52,282c28.73-28.27,27.32-28.62,55.62-.51,32.83,32.62,66.05,65,100.36,96.31,12.85,11.74,10.61,18.2-1.13,29.09Q714.44,620,485.47,834.09c-8.78,8.19-17.07,16.8-25.7,25.12C456.94,861.93,453.73,864.33,451.27,866.4Z"/></svg>