<svg id="Layer_1" data-name="Layer 1" xmlns="http://www.w3.org/2000/svg" viewBox="0 0 1080 1080"><defs><style>.cls-1{fill:#febb17;}</style></defs><path class="cls-1" d="M472.53,566.13c-127-102.85-214-220.93-188.54-383.45-15.21-2-26.43-2.4-36.93-5.12-16.28-4.2-25.2-14.55-22.9-30.57,2.18-15.14,13.43-22.28,29.11-24.22,5.53-.68,11.2-.46,16.81-.46q283.42,0,566.84,0c4.36,0,8.74-.1,13.09.17,18.44,1.13,30.94,10.72,32.6,24.85,1.83,15.66-7.6,27.29-27,31.44-8.94,1.92-18.4,1.86-30.69,3,2.53,73.38,1.42,146.58-38.67,214.29-38.68,65.31-90.6,120.29-152.17,170.24C760.27,668.8,848.25,786.49,822.45,949.88c14.57,1.85,25.69,2.28,36.21,4.82,16.28,3.93,25.74,13.81,23.87,30s-13.63,23.35-30.11,25.15c-6.16.67-12.45.39-18.68.39H272.51c-3.74,0-7.49,0-11.22,0-23.34-.6-36.85-10.57-37.4-27.54C223.36,966,237,954,259.13,952.15c6.67-.56,13.45-.09,22.69-.09-2.81-74.85-1.55-147.45,38.09-214.81C358.46,671.73,410.46,616.76,472.53,566.13ZM328.59,180.87c0,22.88.93,44.37-.18,65.77-2.9,55.92,16.31,106,47.19,153.08C409.85,452,454.27,496.42,505,535.37c34.66,26.59,33.42,33.88-.2,62.59a1039.68,1039.68,0,0,0-111,110C332.16,779.32,319.1,862.72,331,950.75h445c9.63-83.41-.6-161.61-53.93-231.87-34.3-45.18-73.6-86.13-119.68-121.21-35.46-27-37.07-36.66.88-63,.49-.34,1-.73,1.41-1.11,60.68-49.69,113.86-104.47,149-172.76,29.86-58,24.93-118.69,23.57-179.91Z"/><path class="cls-1" d="M553.37,596.58c54.74,42.12,104.73,86.07,143.49,139.8C737.69,793,754.47,854.57,746,923H360.36c-4.6-49-.4-97.11,23.18-143C417.26,714.27,470.36,663,528.81,615.63,536.65,609.28,544.78,603.23,553.37,596.58Z"/><path class="cls-1" d="M671.39,432.7,550.44,541.82,433.7,434.08l4.71-5.46H667.08Z"/></svg>