<svg id="Layer_1" data-name="Layer 1" xmlns="http://www.w3.org/2000/svg" viewBox="0 0 1009.29 1080"><defs><style>.cls-1{fill:#28406f;}.cls-2{fill:#fef100;}.cls-3{fill:#00aeef;}.cls-4{fill:#ed1c24;}.cls-5{fill:#f4731a;}.cls-6{fill:#fff200;}</style></defs><rect class="cls-1" x="51.2" y="68.43" width="906.89" height="943.15" rx="210.13"/><path class="cls-2" d="M281.59,437.14q0-119.52,0-239c0-3.53-.48-3.05,3.15-3.05h448c3.77,0,3.23-.47,3.23,3.2q0,239.17,0,478.34c0,3.54.52,3.16-3.06,3.16H284.7c-3.6,0-3.1.47-3.11-3.09Q281.58,556.89,281.59,437.14Z"/><path class="cls-3" d="M701.8,844.52V833q0-34.28,0-68.55c0-2.78,0-5.56,0-8.35,0-2.09,0-2.1,2-2.1h21.64c2.85,0,5.7,0,8.56,0,2,0,2,0,2,2.13V900.7c0,3,.39,2.79-2.75,2.79-10.82,0-21.64,0-32.45,0a3.72,3.72,0,0,1-3.66-1.9c-5.74-9.07-11.56-18.08-17.38-27.09-5.09-7.88-10.22-15.74-15.31-23.62s-10.14-15.77-15.22-23.65c-2.23-3.46-4.51-6.89-6.9-10.54a4.92,4.92,0,0,0-.3,2.65q.09,40.59.2,81.17c0,3.23.46,2.94-2.83,2.94H610.58c-.52,0-1.05,0-1.58,0-.79,0-1.07-.36-1-1.1,0-.45,0-.9,0-1.35q0-72.27,0-144.54c0-2.72-.23-2.47,2.36-2.47,10.14,0,20.28,0,30.42,0a2.93,2.93,0,0,1,2.86,1.58c6.23,9.73,12.54,19.41,18.84,29.09,6,9.18,12,18.34,18,27.53q10,15.38,19.94,30.79A3.46,3.46,0,0,0,701.8,844.52Z"/><path class="cls-3" d="M281.59,828.58V756.19c0-2.38-.11-2.17,2.22-2.17h63.33a55.73,55.73,0,0,1,9.22.42c11.07,1.84,20.42,6.68,27.49,15.59a52.21,52.21,0,0,1,10.59,25.47,66.52,66.52,0,0,1-1.85,28.55,47.3,47.3,0,0,1-13.81,22.55,41,41,0,0,1-20.15,9.89,63,63,0,0,1-11.86.94c-9.32,0-18.63,0-27.95,0a13.71,13.71,0,0,1-1.57,0c-1.15-.12-1.45.47-1.38,1.48,0,.52,0,1.05,0,1.57v41c0,1.94,0,2-2,2h-30c-2.5,0-2.32.19-2.32-2.29V828.58Z"/><path class="cls-3" d="M448.71,828.62V757.35c0-.45,0-.9,0-1.36,0-1.94,0-2,2-2h30.2c2.11,0,2.12,0,2.13,2.06V869.31c0,3.34-.33,2.93,2.83,2.93H547.4c2.77,0,2.51-.27,2.51,2.56q0,13.08,0,26.16c0,.45,0,.91,0,1.36.07.89-.37,1.21-1.21,1.17-.52,0-1.05,0-1.57,0H451.56c-3.2,0-2.84.34-2.84-2.93Q448.7,864.59,448.71,828.62Z"/><path class="cls-4" d="M582.34,398.13c-1.6,3.24-2.65,6.69-3.92,10.05q-5.91,15.57-11.65,31.19a75.14,75.14,0,0,0-2.63,7.42,3.12,3.12,0,0,1-.33,2.18c-3.24,9-6.69,17.84-10,26.78a5.21,5.21,0,0,1-1.55,2.69c-1.64,4.26-3.3,8.51-4.91,12.78q-4.53,12.07-9,24.19c-.16.42-.26.86-.39,1.29a4.39,4.39,0,0,1-.52,2.82c-2.79,7.53-5.66,15-8.44,22.57a4.53,4.53,0,0,1-1.25,2.1,103.64,103.64,0,0,0-4,10.25c-3.47,9.11-6.83,18.26-10.24,27.39q-5.71,15.28-11.42,30.56l-5,13.49c-.41.13-.6,0-.46-.43q1.72-9.39,3.44-18.78,2.83-15.36,5.69-30.7c1.69-9.05,3.42-18.1,5.09-27.16A51.3,51.3,0,0,0,512,542c-.59-.94-.17-1.9,0-2.84,1.61-8.69,3.29-17.38,4.87-26.08a4.13,4.13,0,0,1,1-2.46c1-3.6,1.5-7.32,2.21-11,1.54-7.85,3-15.72,4.41-23.59.53-2.86,1-5.74,1.49-8.61-.61-1.12-.09-2.21.11-3.29,1.09-6,2.21-11.93,3.38-18.4-2.43,1-4.43,1.93-6.41,2.87-13.14,6.24-26.33,12.37-39.49,18.57-8.21,3.87-16.47,7.59-24.6,11.62-.78.39-1.61.17-2.34.56a49.32,49.32,0,0,0-7.15,3.22l-22.14,10.4c-3.87,1.81-7.73,3.64-11.63,5.35-2.39,1-4.57,2.55-7.3,3.34a46.37,46.37,0,0,1,1.91-7.18c2.69-9.28,5.45-18.54,8.18-27.81a10.16,10.16,0,0,0,.21-1.1c-.46-.84,0-1.61.2-2.38,2.5-8.41,5-16.82,7.41-25.27a5.13,5.13,0,0,1,1.39-2.76c1.42-4.72,2.86-9.43,4.27-14.15q3.31-11.16,6.61-22.34a5.5,5.5,0,0,0,.41-2c-.19-2.32.82-4.39,1.43-6.52q3-10.25,6-20.46a6.09,6.09,0,0,1,1.5-3.21c1.63-5.38,3.3-10.76,4.89-16.15q5.58-18.88,11.12-37.79,6.19-21.06,12.43-42.1c.9-3,1.82-6,2.66-9.07.3-1.07.74-1.63,2-1.63q27.93.08,55.88.05a3,3,0,0,1,.57.14,11.77,11.77,0,0,1-1.31,3.73c-3.59,9-7.26,17.94-10.89,26.92q-7,17.32-14,34.66Q505,340.81,498.7,356.34c-.36.9-.67,1.83-1,2.75.5,1.14-.3,2-.67,2.94q-7,17.69-14.25,35.3c-3.85,9.52-7.67,19-11.64,28.83,5.54-1.9,10.47-4.31,15.49-6.47,8.14-3.49,16.29-7,24.41-10.51,9.57-4.18,19.24-8.12,28.72-12.48q21.43-9,42.71-18.42c2.13-.94,4.31-1.74,6.44-2.66,1.15-.49,2.25-.25,1.71,1.18C587.89,383.92,586,391.39,582.34,398.13Z"/><path class="cls-3" d="M517.83,510.58c-.33,3.59-1.22,7.08-1.85,10.62-1.15,6.58-2.41,13.13-3.63,19.69A8.41,8.41,0,0,1,512,542a47.13,47.13,0,0,0-11.86,1,59.83,59.83,0,0,0-12.92,4.44c-5.48,2.75-10.86,5.78-16.83,7.42a37.11,37.11,0,0,1-13.4,1,39.85,39.85,0,0,1-16.22-5.56c-4.6-2.64-9.16-5.46-14.27-7.06a41.08,41.08,0,0,0-14.93-1.47,67,67,0,0,0-19.62,4.62A81,81,0,0,0,374.72,555c-.4.27-.79.74-1.4.54a2.64,2.64,0,0,1-.15-1.52c0-9.69,0-19.39,0-29.08a2.85,2.85,0,0,1,1.62-2.82,75.06,75.06,0,0,1,10.3-5,99,99,0,0,1,21.33-6.12,57.38,57.38,0,0,1,17.92-.45,56.38,56.38,0,0,1,20,6.37c2.75,1.54,5.58,2.88,8.42,4.23a19.68,19.68,0,0,0,13.61,1.23,73.77,73.77,0,0,0,11.81-4.28c.89-.39,1.77-.8,2.66-1.18a90,90,0,0,1,22-6.36A53.74,53.74,0,0,1,517.83,510.58Z"/><path class="cls-3" d="M582.34,398.13c.78-3.13,2.15-6.05,3.23-9.07,1.49-4.16,3.1-8.28,4.66-12.41a1,1,0,0,0,0-1l-9.3,4-1,.47c-4.55,1.92-9.12,3.81-13.64,5.78q-9.06,3.94-18.14,7.81c-2.69,1.15-5.33,2.38-8.08,3.37a6.41,6.41,0,0,1-3.57-1.16c-11-6.2-22.84-6.78-34.9-5.1-5.86.81-11.39,3.07-16.7,5.76-.78.4-1.58.94-2.54.48q3.69-9.25,7.39-18.51,3.58-8.94,7.21-17.86c.22-.56.5-1.09.76-1.63a68.1,68.1,0,0,1,17-1,58,58,0,0,1,16,3.48c6.73,2.49,13.28,5.55,20.22,7.46,6.59,1.82,13.31,2.38,20,.66a25.36,25.36,0,0,0,8.55-4.39,33.8,33.8,0,0,1,16-6.74,75,75,0,0,1,30.33,2.12,51,51,0,0,1,15.37,7.26c.91.65,1.71,1.45,2.59,2.14a1.78,1.78,0,0,1,.7,1.56c0,10.43,0,20.86,0,31.42a3.26,3.26,0,0,1-2-1.13,59.16,59.16,0,0,0-25.77-11.59,43,43,0,0,0-18.11-.1,28.09,28.09,0,0,0-10.3,4.32C586.4,395.86,584.33,396.94,582.34,398.13Z"/><path class="cls-3" d="M527.78,544.19a66.91,66.91,0,0,1,2.89-8.23c2.27-6.25,4.65-12.46,7-18.68a3.28,3.28,0,0,1,.32-.58,80.16,80.16,0,0,0,14.6,5.15,35.55,35.55,0,0,0,18.26.29,23.2,23.2,0,0,0,7.84-3.84,37.55,37.55,0,0,1,15.79-7.17,61.16,61.16,0,0,1,21.46-.1c2.52.42,5,.83,7.52,1.42a53.4,53.4,0,0,1,17.92,8.06c.25.17.5.34.74.52a5.43,5.43,0,0,1,2.41,4.89c-.18,9.09-.08,18.18-.08,27.27v2.12c-.55.38-.83.07-1.1-.16a58.22,58.22,0,0,0-19.43-10.51A55.9,55.9,0,0,0,604.2,542a32.43,32.43,0,0,0-16.63,5.5c-4.52,2.94-9.1,5.81-14.35,7.34a32.78,32.78,0,0,1-6.43,1,39.62,39.62,0,0,1-13.65-.9,52,52,0,0,1-11.26-4.41C537.36,548.09,532.87,545.44,527.78,544.19Z"/><path class="cls-3" d="M552.28,478.44c1.47-4.07,2.92-8.15,4.42-12.21q3.39-9.14,6.82-18.25a12.27,12.27,0,0,1,.62-1.19c5.66.24,10.61-1.83,15.05-5.05a36.28,36.28,0,0,1,16.34-7,58.8,58.8,0,0,1,14.57-.6c5.66.6,11.33,1.25,16.78,3a55.18,55.18,0,0,1,14.46,7.08c.86.6,1.6,1.36,2.41,2a1.86,1.86,0,0,1,.71,1.56c0,10.42,0,20.85,0,31.23-.76.35-1.07-.21-1.44-.51a59.25,59.25,0,0,0-22.12-11.06,55,55,0,0,0-17.58-1.7A31.68,31.68,0,0,0,588,471c-4.3,2.7-8.54,5.57-13.43,7.18a33.86,33.86,0,0,1-8.18,1.4A42.66,42.66,0,0,1,552.28,478.44Z"/><path class="cls-3" d="M447.92,366.49c-2.16,7.44-4.3,14.88-6.51,22.31a66.47,66.47,0,0,1-2.45,7.88c-2.1-1.16-4.17-2.36-6.3-3.45-8.13-4.16-16.76-4.9-25.63-3.49a71.87,71.87,0,0,0-14.94,4,87,87,0,0,0-16.86,8.4,3.43,3.43,0,0,1-1.92.87,3.66,3.66,0,0,1-.15-1.68c0-9.61,0-19.23,0-28.84a2.86,2.86,0,0,1,1.81-2.92,107.42,107.42,0,0,1,18.79-8,73.41,73.41,0,0,1,27.47-3.59,49.72,49.72,0,0,1,15.18,3A67.71,67.71,0,0,1,447.92,366.49Z"/><path class="cls-3" d="M427.67,435.13c-1.84,6.37-3.64,12.74-5.54,19.09-1.13,3.78-2.08,7.62-3.46,11.32a59.22,59.22,0,0,0-20.86,2.63,103,103,0,0,0-20.95,9.15c-1.15.63-2.07,1.69-3.42,2-.46-.48-.27-1-.27-1.51,0-9.7,0-19.39,0-29.08a2.73,2.73,0,0,1,1.66-2.77,107.89,107.89,0,0,1,17.7-7.66A92.12,92.12,0,0,1,413.81,434C418.47,433.58,423.08,434.32,427.67,435.13Z"/><path class="cls-3" d="M456.59,479.32c1.76-1,3.54-1.9,5.38-2.74,6.45-2.95,12.92-5.9,19.32-9,5-2.4,10-4.74,15-7.06,8-3.7,16-7.37,23.95-11.26,3.15-1.55,6.48-2.71,9.51-4.58.31,1.66-2.14,16-3.84,22.68-5.37-1.73-10.92-1.67-16.47-1.67a51.34,51.34,0,0,0-20.05,4.38c-3,1.27-5.94,2.8-8.85,4.34-6.93,3.67-14.28,5.78-22.22,5.23A13,13,0,0,1,456.59,479.32Z"/><path class="cls-5" d="M496.61,625.45l.46.43c-.13.41-.24.83-.4,1.23,0,.11-.18.18-.32.31A1.84,1.84,0,0,1,496.61,625.45Z"/><path class="cls-1" d="M315.88,805.65v-18c0-2,0-2,2.11-2,8.41,0,16.82.1,25.23,0,8-.13,14,4.45,16,12.15,1.66,6.41,1.59,12.81-1.23,19a14.92,14.92,0,0,1-12.68,9.13,61.77,61.77,0,0,1-6.53.14h-21c-1.93,0-1.95,0-2-2Q315.87,814.79,315.88,805.65Z"/><path class="cls-6" d="M482.34,397.09q3.32-1.38,6.52-3a33.88,33.88,0,0,1,3.54-1.41c9.61-3.55,19.53-4,29.5-2.47a37.58,37.58,0,0,1,13.16,4.37c1.62.93,3.43,1.5,5,2.55-.93.48-1.83,1-2.79,1.44-4.55,1.95-9.12,3.82-13.66,5.78-6.59,2.86-13.15,5.79-19.75,8.65-4.12,1.78-8.29,3.47-12.42,5.25-7,3-14,6.06-21.24,9.2a22.42,22.42,0,0,1,1.72-4.72c3.33-8.36,6.73-16.69,10.11-25A5.7,5.7,0,0,1,482.34,397.09Z"/></svg>