<svg id="Layer_1" data-name="Layer 1" xmlns="http://www.w3.org/2000/svg" viewBox="0 0 1080 1080"><defs><style>.cls-1{fill:#ccc;}.cls-2{fill:#fff;}</style></defs><path class="cls-1" d="M128.12,560.1C126.89,328.9,310.61,140.16,537,138c223.58-2.18,413.24,181.65,414.92,419.56,1.65,233-182.87,423-410.55,424.29C314.29,983.06,129.37,794.33,128.12,560.1Z"/><path class="cls-2" d="M540.25,623.49c3.74-6.52,7.77-11.31,9.43-16.82,7-23.34,22.64-29.26,45.74-26.84,20,2.1,40.37,1.36,60.2,5.06,52.18,9.73,74.53,38.88,71.29,91.72-4.06,66-36.5,109.1-100.25,129.15-65,20.44-129.4,18.1-190.89-13-63.81-32.31-81.4-99.25-68.43-154.55,7.69-32.75,31.38-50.18,70.57-55,21.94-2.68,43.91-2.63,65.92-3.13,7.65-.17,11.59,2.81,15.11,8.93C525.49,600.37,532.7,611.35,540.25,623.49Z"/><path class="cls-2" d="M415.21,435.06c-1.2-64.67,57.26-118.15,117.53-116.34C597,320.65,649,371,649,435.05c0,63.27-52.67,116.25-116.26,117C469.32,552.74,415.19,498.85,415.21,435.06Z"/></svg>